<?xml version="1.0" encoding="UTF-8"?>
<svg version="1.1" xmlns="http://www.w3.org/2000/svg" width="32" height="32">
<path d="M0 0 C0.99 0.66 1.98 1.32 3 2 C3.33 1.34 3.66 0.68 4 0 C4.66 0 5.32 0 6 0 C6 0.99 6 1.98 6 3 C7.65 3 9.3 3 11 3 C11.8125 4.6875 11.8125 4.6875 12 7 C9.6875 9.75 9.6875 9.75 7 12 C6.34 12 5.68 12 5 12 C5 12.99 5 13.98 5 15 C6.32 15.33 7.64 15.66 9 16 C8.67 16.99 8.34 17.98 8 19 C7.01 19 6.02 19 5 19 C5 18.34 5 17.68 5 17 C4.319375 17.495 3.63875 17.99 2.9375 18.5 C-0.62709463 20.32021853 -3.04562205 20.29844362 -7 20 C-7.66 19.67 -8.32 19.34 -9 19 C-10.53668865 18.77532169 -12.07968054 18.59203195 -13.625 18.4375 C-14.44226563 18.35371094 -15.25953125 18.26992188 -16.1015625 18.18359375 C-17.04128906 18.09271484 -17.04128906 18.09271484 -18 18 C-18.66 15.69 -19.32 13.38 -20 11 C-19.34 11 -18.68 11 -18 11 C-18 10.34 -18 9.68 -18 9 C-16.35 9 -14.7 9 -13 9 C-15.475 8.01 -15.475 8.01 -18 7 C-17.67 5.35 -17.34 3.7 -17 2 C-13.125 2.875 -13.125 2.875 -12 4 C-11.505 3.34 -11.01 2.68 -10.5 2 C-6.83122512 -0.9350199 -4.63302532 -0.44124051 0 0 Z M5 5 C5.33 5.99 5.66 6.98 6 8 C6.33 7.01 6.66 6.02 7 5 C6.34 5 5.68 5 5 5 Z M-14 11 C-14.33 11.99 -14.66 12.98 -15 14 C-14.34 14 -13.68 14 -13 14 C-13.33 13.01 -13.66 12.02 -14 11 Z " fill="#8362B8" transform="translate(20,6)"/>
<path d="M0 0 C0.66 0 1.32 0 2 0 C2 0.99 2 1.98 2 3 C3.65 3 5.3 3 7 3 C7.33 4.32 7.66 5.64 8 7 C6.02 8.65 4.04 10.3 2 12 C2 11.01 2 10.02 2 9 C1.44570313 9.28875 0.89140625 9.5775 0.3203125 9.875 C-0.40414063 10.24625 -1.12859375 10.6175 -1.875 11 C-2.59429687 11.37125 -3.31359375 11.7425 -4.0546875 12.125 C-6 13 -6 13 -8 13 C-8 12.34 -8 11.68 -8 11 C-9.32 11 -10.64 11 -12 11 C-12.33 9.02 -12.66 7.04 -13 5 C-9 5 -9 5 -6 7 C-4.34450469 7.38499891 -2.6777567 7.72793135 -1 8 C-0.67 5.36 -0.34 2.72 0 0 Z M1 5 C1.33 5.99 1.66 6.98 2 8 C2.33 7.01 2.66 6.02 3 5 C2.34 5 1.68 5 1 5 Z " fill="#6579B0" transform="translate(24,6)"/>
<path d="M0 0 C7.28850325 -0.48590022 7.28850325 -0.48590022 10.5625 1.75 C12 4 12 4 11.75 6.25 C11.5025 6.8275 11.255 7.405 11 8 C6.5428126 7.73781251 4.48477302 7.42288711 1.0625 4.4375 C0.381875 3.633125 -0.29875 2.82875 -1 2 C-0.67 1.34 -0.34 0.68 0 0 Z " fill="#8EACCD" transform="translate(12,6)"/>
<path d="M0 0 C0 0.99 0 1.98 0 3 C1.32 3.33 2.64 3.66 4 4 C3.67 4.99 3.34 5.98 3 7 C2.01 7 1.02 7 0 7 C0 6.34 0 5.68 0 5 C-0.7425 5.515625 -1.485 6.03125 -2.25 6.5625 C-5 8 -5 8 -7.3125 7.6875 C-7.869375 7.460625 -8.42625 7.23375 -9 7 C-9 5.68 -9 4.36 -9 3 C-2.25 0 -2.25 0 0 0 Z " fill="#6E5FA8" transform="translate(25,18)"/>
<path d="M0 0 C1.65 0 3.3 0 5 0 C4.34 1.65 3.68 3.3 3 5 C3.639375 5.103125 4.27875 5.20625 4.9375 5.3125 C5.618125 5.539375 6.29875 5.76625 7 6 C7.33 6.99 7.66 7.98 8 9 C5.36 9 2.72 9 0 9 C-0.66 6.69 -1.32 4.38 -2 2 C-1.34 2 -0.68 2 0 2 C0 1.34 0 0.68 0 0 Z " fill="#65486D" transform="translate(2,15)"/>
<path d="M0 0 C0 0.99 0 1.98 0 3 C-6.625 6 -6.625 6 -10 6 C-9.67 7.65 -9.34 9.3 -9 11 C-11.9375 10.625 -11.9375 10.625 -15 10 C-15.33 9.34 -15.66 8.68 -16 8 C-13.52093943 5.13437405 -10.87838941 3.8382206 -7.4375 2.3125 C-5.98150391 1.65701172 -5.98150391 1.65701172 -4.49609375 0.98828125 C-2 0 -2 0 0 0 Z " fill="#B57DCE" transform="translate(26,15)"/>
<path d="M0 0 C2.66666667 0.66666667 5.33333333 1.33333333 8 2 C7.01 3.485 7.01 3.485 6 5 C5.83300768 8.12521833 5.83300768 8.12521833 6 11 C6.66 11.33 7.32 11.66 8 12 C6.68 12 5.36 12 4 12 C3.67 10.02 3.34 8.04 3 6 C1.68 5.67 0.36 5.34 -1 5 C-0.67 3.35 -0.34 1.7 0 0 Z " fill="#AF7BC8" transform="translate(3,8)"/>
<path d="M0 0 C3.36179774 1.44077046 5.59156268 3.24750021 8 6 C8 6.66 8 7.32 8 8 C6.68 8.33 5.36 8.66 4 9 C4 8.34 4 7.68 4 7 C2.68 7 1.36 7 0 7 C-0.38133299 5.0085944 -0.71325582 3.00720923 -1 1 C-0.67 0.67 -0.34 0.34 0 0 Z " fill="#6867B4" transform="translate(12,10)"/>
<path d="M0 0 C2.9375 0.8125 2.9375 0.8125 6 2 C6.33 2.99 6.66 3.98 7 5 C4.69 5 2.38 5 0 5 C0 3.35 0 1.7 0 0 Z " fill="#553254" transform="translate(3,19)"/>
<path d="M0 0 C1.65 0.33 3.3 0.66 5 1 C5.33 1.99 5.66 2.98 6 4 C5.34 4.66 4.68 5.32 4 6 C2.35 5.01 0.7 4.02 -1 3 C-0.67 2.01 -0.34 1.02 0 0 Z " fill="#B8C2E4" transform="translate(16,6)"/>
<path d="M0 0 C1.98 0.495 1.98 0.495 4 1 C3.6875 2.875 3.6875 2.875 3 5 C2.01 5.66 1.02 6.32 0 7 C-1.125 2.25 -1.125 2.25 0 0 Z " fill="#555C98" transform="translate(28,9)"/>
<path d="M0 0 C1.875 0.125 1.875 0.125 4 1 C5.25 4.0625 5.25 4.0625 6 7 C3.11562221 5.70700306 1.12780579 4.34058637 -1 2 C-0.67 1.34 -0.34 0.68 0 0 Z " fill="#8B91CB" transform="translate(12,6)"/>
<path d="M0 0 C2 3 2 3 2 5 C2.99 5.33 3.98 5.66 5 6 C5 7.32 5 8.64 5 10 C3.68 9.67 2.36 9.34 1 9 C0.29925156 5.846632 0 3.27275026 0 0 Z " fill="#A564B3" transform="translate(8,13)"/>
<path d="M0 0 C0 0.99 0 1.98 0 3 C-2.31 3.66 -4.62 4.32 -7 5 C-6 2 -6 2 -4.0625 0.8125 C-2 0 -2 0 0 0 Z " fill="#9592DB" transform="translate(26,15)"/>
<path d="M0 0 C0.66 0 1.32 0 2 0 C2 0.99 2 1.98 2 3 C1.34 3 0.68 3 0 3 C0 2.01 0 1.02 0 0 Z " fill="#968CB8" transform="translate(28,17)"/>
<path d="M0 0 C0.66 0 1.32 0 2 0 C2 0.99 2 1.98 2 3 C1.34 3 0.68 3 0 3 C0 2.01 0 1.02 0 0 Z " fill="#A691B7" transform="translate(7,5)"/>
<path d="M0 0 C0.99 0.33 1.98 0.66 3 1 C2.01 1 1.02 1 0 1 C0 0.67 0 0.34 0 0 Z " fill="#625F92" transform="translate(22,25)"/>
</svg>
